<svg xmlns="http://www.w3.org/2000/svg" width="32.992" height="39.879" viewBox="0 0 32.992 39.879">
  <path id="Path_82" data-name="Path 82" d="M8.5,41A5.5,5.5,0,0,1,3,35.5V17.172q0-.093.009-.184H3a3.98,3.98,0,0,1,1.166-2.815L15.608,2.732a5.5,5.5,0,0,1,7.776,0L34.826,14.174a3.98,3.98,0,0,1,1.166,2.815h-.009q.009.091.009.184V35.5a5.5,5.5,0,0,1-5.5,5.5ZM20.792,5.324,32.326,16.858V35.5a1.833,1.833,0,0,1-1.833,1.833h-5.5V28.17a5.5,5.5,0,1,0-11,0v9.164H8.5A1.833,1.833,0,0,1,6.666,35.5V16.858L18.2,5.324A1.833,1.833,0,0,1,20.792,5.324Z" transform="translate(-3 -1.121)" fill="#fff" fill-rule="evenodd"/>
</svg>
