<svg xmlns="http://www.w3.org/2000/svg" xmlns:xlink="http://www.w3.org/1999/xlink" width="75.851" height="74.754" viewBox="0 0 75.851 74.754"><defs><linearGradient id="a" y1="1" x2="1" gradientUnits="objectBoundingBox"><stop offset="0" stop-color="#acb1d6"/><stop offset="1" stop-color="#8294c4"/></linearGradient></defs><path d="M20.4-32.4c6.9,1.2,14.2,4.7,16,10.5S34.6-8.1,32.5-1.2c-2.1,6.8-2.7,12.5-4,19.1s-3.4,14.2-8.3,18.9A18.8,18.8,0,0,1,1.3,40.9C-5,38.6-9.9,32.2-16.8,28.6c-6.9-3.5-15.6-4.1-19.5-8.4S-39.1,7.9-37.5.9a64.646,64.646,0,0,1,7-18.5c3.1-5.6,7.3-10.5,12.5-12.7C-12.7-32.4-6.4-31.7.2-32,6.7-32.2,13.4-33.5,20.4-32.4Z" transform="translate(38.963 32.837)" fill="url(#a)"/></svg>